<svg xmlns="http://www.w3.org/2000/svg" version="1.1" xmlns:xlink="http://www.w3.org/1999/xlink" width="1000" height="1000"><g clip-path="url(#SvgjsClipPath1071)"><rect width="1000" height="1000" fill="#ffffff"></rect><g transform="matrix(2,0,0,2,0,0)"><svg xmlns="http://www.w3.org/2000/svg" version="1.1" xmlns:xlink="http://www.w3.org/1999/xlink" width="500" height="500"><svg version="1.1" id="Слой_1" xmlns:x="&amp;ns_extend;" xmlns:i="&amp;ns_ai;" xmlns:graph="&amp;ns_graphs;" xmlns="http://www.w3.org/2000/svg" xmlns:xlink="http://www.w3.org/1999/xlink" x="0px" y="0px" viewBox="0 0 500 500" style="enable-background:new 0 0 500 500;" xml:space="preserve">
<style type="text/css">
	.st0{fill:#0093D0;}
	.st1{fill:#FFFFFF;}
</style>
<metadata>
	<sfw xmlns="&amp;ns_sfw;">
		<slices></slices>
		<slicesourcebounds bottomleftorigin="true" height="500" width="500" x="0" y="-500"></slicesourcebounds>
	</sfw>
</metadata>
<g>
	<rect x="0" y="0" class="st0" width="500" height="500"></rect>
	<g>
		<path class="st1" d="M219,266.3c-26.4,59.7-75.9,101.2-130.8,116.6c-2.8,0.8-4.1-2.8-1.4-4c51.5-22.5,95.9-64.9,121.3-122.2
			c18.6-42,24.5-86.3,19.2-128c-0.4-2.9,3.4-3.7,4.2-0.8C242.6,171.4,239.4,220.3,219,266.3"></path>
		<path class="st1" d="M288.9,200.6c-45.5,46.3-63.5,96.5-56.5,140.7c0.4,2.9-3,3.8-4.1,1.1c-16.9-43.6-2.3-97.1,44.9-145.2
			c36.4-37,86.1-64.5,138.5-80.1c2.8-0.8,4.1,3,1.4,4.1C365.7,139.7,322.3,166.7,288.9,200.6"></path>
		<path class="st1" d="M260.7,144.5c5.3-8.7,14.6-15,27.2-11.6c11.2,3.1,18,12.1,14.1,21.5c-1.1,2.6-4,2-4.1-0.7
			c-0.2-4.6-4.3-9.1-12.1-11.3c-10.3-2.8-17.7,1.8-22.3,9.4c-0.3,0.5-0.6,1-0.8,1.6c-1.1,2.6-4,2-4.1-0.7
			C258.4,149.8,259.1,147,260.7,144.5"></path>
	</g>
</g>
</svg></svg></g></g><defs><clipPath id="SvgjsClipPath1071"><rect width="1000" height="1000" x="0" y="0" rx="500" ry="500"></rect></clipPath></defs></svg>